# xmcd
#
# Track frame offsets: 
#        225
#        9707
#        22886
#        42588
#        62034
#        80619
#        108783
#        132639
#        154162
#        174097
#        191553
#
# Disc length: 2858 seconds
#
# Revision: 3
# Processed by: cddbd v1.5.2PL0 Copyright (c) Steve Scherf et al.
# Submitted via: ExactAudioCopy v1.3
#
DISCID=8a0b270b
DTITLE=Ewa Demarczyk - Śpiewa piosenki Zygmunta Koniecznego
DYEAR=1967
DGENRE=Pop
TTITLE0=Karuzela z Madonnami
TTITLE1=Garbus
TTITLE2=Tomaszów
TTITLE3=Grande Valse Brillante
TTITLE4=Jaki śmieszny
TTITLE5=Taki pejzaż
TTITLE6=Wiersze Baczyńskiego
TTITLE7=Pocałunki
TTITLE8=Czarne anioły
TTITLE9=Groszki i róże
TTITLE10=Deszcze
EXTD=YEAR: 1966
EXTT0=
EXTT1=
EXTT2=
EXTT3=
EXTT4=
EXTT5=
EXTT6=
EXTT7=
EXTT8=
EXTT9=
EXTT10=
PLAYORDER=
